# Blender v2.78 (sub 0) OBJ File: 'CHAHIN_CANDY_HEART.blend'
# www.blender.org
mtllib CHAHIN_CANDY_HEART.mtl
o Cube.002_Cube.024
v 0.417360 0.039540 0.024857
v 0.417360 0.316539 0.162509
v 0.417360 0.039540 -0.024050
v 0.417360 0.316539 -0.161703
v 0.540980 0.039540 0.024857
v 0.540980 0.316539 0.162509
v 0.540980 0.039540 -0.024050
v 0.540980 0.316539 -0.161703
v 0.417360 0.039540 0.000403
v 0.540980 0.039540 0.000403
v 0.540980 0.305431 0.000403
v 0.417360 0.305431 0.000403
v 0.417360 0.039540 0.000403
v 0.417360 0.039540 0.000403
v 0.417360 0.332300 -0.034801
v 0.417360 0.332300 0.035607
v 0.540980 0.039540 0.000403
v 0.540980 0.039540 0.000403
v 0.540980 0.332300 0.035607
v 0.540980 0.332300 -0.034801
v 0.417360 0.181684 0.153520
v 0.417360 0.181684 -0.152714
v 0.540980 0.181684 -0.152714
v 0.417360 0.181684 0.000403
v 0.540980 0.181684 0.153520
v 0.540980 0.181684 0.000403
v 0.540980 0.181684 0.033655
v 0.540980 0.181684 -0.032849
v 0.417360 0.181684 -0.032849
v 0.417360 0.181684 0.033655
v 0.417360 0.346247 -0.130002
v 0.540980 0.346247 -0.130002
v 0.540980 0.346247 0.130808
v 0.417360 0.346247 0.130808
v 0.417360 0.346247 0.067308
v 0.540980 0.346247 0.067308
v 0.540980 0.346247 -0.066502
v 0.417360 0.346247 -0.066502
v 0.417360 0.263773 0.172878
v 0.417360 0.263773 0.000403
v 0.540980 0.263773 -0.172071
v 0.540980 0.263773 0.000403
v 0.417360 0.263773 -0.172071
v 0.540980 0.263773 -0.037053
v 0.417360 0.263773 0.037859
v 0.540980 0.263773 0.172878
v 0.540980 0.263773 0.037859
v 0.417360 0.263773 -0.037053
v 0.417360 0.103491 0.000403
v 0.417360 0.103491 -0.097379
v 0.540980 0.103491 -0.097379
v 0.540980 0.103491 0.098185
v 0.417360 0.103491 0.098185
v 0.540980 0.103491 0.021638
v 0.417360 0.103491 -0.020832
v 0.540980 0.103491 0.000403
v 0.540980 0.103491 -0.020832
v 0.417360 0.103491 0.021638
vt 0.8313 1.0000
vt 0.8313 0.5000
vt 0.8807 0.5000
vt 0.8807 1.0000
vt 0.6776 0.0000
vt 0.7219 0.0000
vt 0.7219 0.5000
vt 0.6776 0.5000
vt 0.4260 0.7165
vt 0.3525 0.6928
vt 0.3525 0.6928
vt 0.4260 0.6928
vt 0.3088 0.0000
vt 0.3535 0.0000
vt 0.3535 0.5000
vt 0.3088 0.5000
vt 0.6102 0.7347
vt 0.6889 0.7321
vt 0.6708 0.8740
vt 0.6102 0.8856
vt 0.6889 0.6534
vt 0.6708 0.5116
vt 0.7050 0.5470
vt 0.7050 0.6180
vt 0.2577 0.5000
vt 0.3183 0.5116
vt 0.3365 0.6534
vt 0.2577 0.6509
vt 0.9812 0.5000
vt 0.9812 0.0000
vt 1.0000 0.0000
vt 1.0000 0.5000
vt 0.2577 0.7347
vt 0.3365 0.7321
vt 0.3183 0.8740
vt 0.2577 0.8856
vt 0.6587 0.5000
vt 0.6587 0.0000
vt 0.6776 0.0000
vt 0.6776 0.5000
vt 0.7050 1.0000
vt 0.7050 0.5000
vt 0.7558 0.5000
vt 0.7558 1.0000
vt 0.0000 0.0000
vt 0.0000 0.0000
vt 0.0000 0.0000
vt 0.0000 0.0000
vt 0.0735 0.6928
vt 0.0000 0.6928
vt 0.0000 0.6928
vt 0.0735 0.6691
vt 0.3525 0.6928
vt 0.4260 0.6691
vt 0.6102 0.5000
vt 0.6102 0.6509
vt 0.0735 0.7165
vt 0.0000 0.6928
vt 0.0000 0.0000
vt 0.0000 0.0000
vt 0.9303 0.5000
vt 0.9303 0.0000
vt 0.9812 0.0000
vt 0.9812 0.5000
vt 0.1634 0.7300
vt 0.1634 0.6928
vt 0.2577 0.6928
vt 0.4260 0.5835
vt 0.5159 0.5216
vt 0.5159 0.6556
vt 0.6102 0.6928
vt 0.5159 0.6928
vt 0.1634 0.6556
vt 0.1634 0.8640
vt 0.0735 0.8021
vt 0.0735 0.5835
vt 0.1634 0.5216
vt 0.5159 0.7300
vt 0.5159 0.8640
vt 0.4260 0.8021
vt 0.1073 0.0000
vt 0.2172 0.0000
vt 0.2172 0.5000
vt 0.1073 0.5000
vt 0.5477 0.5000
vt 0.4384 0.5000
vt 0.4384 0.0000
vt 0.5477 0.0000
vt 0.8912 0.0000
vt 0.8912 0.5000
vt 0.8313 0.5000
vt 0.8313 0.0000
vt 0.7713 0.5000
vt 0.7713 0.0000
vt 0.8313 0.0000
vt 0.8313 0.5000
vt 0.3525 0.7676
vt 0.3525 0.8386
vt 0.7949 0.5000
vt 0.7949 1.0000
vt 0.3525 0.5470
vt 0.3525 0.6180
vt 0.7050 0.7676
vt 0.7050 0.8386
vt 0.6581 0.6928
vt 0.3056 0.6928
vt 0.3535 0.5000
vt 0.3535 0.0000
vt 0.0000 0.0000
vt 0.0000 0.5000
vt 0.3525 0.7201
vt 0.0000 0.6655
vt 0.0000 0.7201
vt 0.3525 0.6655
vn 0.0000 0.7297 0.6838
vn 0.0000 0.1928 -0.9812
vn -1.0000 0.0000 0.0000
vn 0.0000 0.1928 0.9812
vn 1.0000 0.0000 0.0000
vn 0.0000 -1.0000 0.0000
vn 0.0000 0.7949 0.6067
vn 0.0000 0.0000 1.0000
vn 0.0000 0.7949 -0.6067
vn 0.0000 -0.5777 0.8163
vn 0.0000 -0.5777 -0.8163
vn 0.0000 1.0000 0.0000
vn 0.0000 0.7297 -0.6838
vn 0.0000 0.9153 0.4027
vn 0.0000 0.9153 -0.4027
vn 0.0000 -0.2295 0.9733
vn 0.0000 -0.2295 -0.9733
vn 0.0000 -0.7537 -0.6573
vn 0.0000 -0.7537 0.6573
usemtl Material.008
s off
f 2/1/1 6/2/1 33/3/1 34/4/1
f 43/5/2 4/6/2 8/7/2 41/8/2
f 55/9/3 14/10/3 9/11/3 49/12/3
f 46/13/4 6/14/4 2/15/4 39/16/4
f 48/17/3 15/18/3 4/19/3 43/20/3
f 16/21/3 2/22/3 34/23/3 35/24/3
f 41/25/5 8/26/5 20/27/5 44/28/5
f 13/29/6 18/30/6 5/31/6 1/32/6
f 47/33/5 19/34/5 6/35/5 46/36/5
f 3/37/6 7/38/6 17/39/6 14/40/6
f 12/41/7 11/42/7 20/43/7 15/44/7
f 10/45/8 9/46/8 14/47/8 17/48/8
f 56/49/5 10/50/5 17/51/5 57/52/5
f 49/12/3 9/11/3 13/53/3 58/54/3
f 39/55/3 2/22/3 16/21/3 45/56/3
f 54/57/5 18/58/5 10/50/5 56/49/5
f 18/59/8 13/60/8 9/46/8 10/45/8
f 16/61/9 19/62/9 11/63/9 12/64/9
f 47/33/5 27/65/5 26/66/5 42/67/5
f 53/68/3 21/69/3 30/70/3 58/54/3
f 40/71/3 24/72/3 30/70/3 45/56/3
f 42/67/5 26/66/5 28/73/5 44/28/5
f 54/57/5 27/65/5 25/74/5 52/75/5
f 51/76/5 23/77/5 28/73/5 57/52/5
f 55/9/3 29/78/3 22/79/3 50/80/3
f 52/81/10 25/82/10 21/83/10 53/84/10
f 48/17/3 29/78/3 24/72/3 40/71/3
f 50/85/11 22/86/11 23/87/11 51/88/11
f 36/89/12 35/90/12 34/91/12 33/92/12
f 32/93/12 31/94/12 38/95/12 37/96/12
f 6/35/5 19/34/5 36/97/5 33/98/5
f 8/7/13 4/6/13 31/94/13 32/93/13
f 15/44/14 20/43/14 37/99/14 38/100/14
f 19/62/15 16/61/15 35/90/15 36/89/15
f 20/27/5 8/26/5 32/101/5 37/102/5
f 4/19/3 15/18/3 38/103/3 31/104/3
f 15/18/3 48/17/3 40/71/3 12/105/3
f 11/106/5 42/67/5 44/28/5 20/27/5
f 12/105/3 40/71/3 45/56/3 16/21/3
f 19/34/5 47/33/5 42/67/5 11/106/5
f 21/69/3 39/55/3 45/56/3 30/70/3
f 27/65/5 47/33/5 46/36/5 25/74/5
f 23/77/5 41/25/5 44/28/5 28/73/5
f 29/78/3 48/17/3 43/20/3 22/79/3
f 25/82/16 46/13/16 39/16/16 21/83/16
f 22/86/17 43/107/17 41/108/17 23/87/17
f 3/37/18 50/85/18 51/88/18 7/38/18
f 5/109/19 52/81/19 53/84/19 1/110/19
f 14/10/3 55/9/3 50/80/3 3/111/3
f 7/112/5 51/76/5 57/52/5 17/51/5
f 18/58/5 54/57/5 52/75/5 5/113/5
f 1/114/3 53/68/3 58/54/3 13/53/3
f 27/65/5 54/57/5 56/49/5 26/66/5
f 24/72/3 49/12/3 58/54/3 30/70/3
f 26/66/5 56/49/5 57/52/5 28/73/5
f 29/78/3 55/9/3 49/12/3 24/72/3
